<?xml version="1.0" encoding="UTF-8"?>
<!DOCTYPE svg PUBLIC "-//W3C//DTD SVG 1.1//EN" "http://www.w3.org/Graphics/SVG/1.1/DTD/svg11.dtd">
<!-- Creator: CorelDRAW -->
<svg xmlns="http://www.w3.org/2000/svg" xml:space="preserve" width="24px" height="24px" style="shape-rendering:geometricPrecision; text-rendering:geometricPrecision; image-rendering:optimizeQuality; fill-rule:evenodd; clip-rule:evenodd"
viewBox="0 0 1.12338 1.12338"
 xmlns:xlink="http://www.w3.org/1999/xlink">
 <defs>
  <style type="text/css">
   <![CDATA[
    .fil1 {fill:none}
    .fil0 {fill:black}
   ]]>
  </style>
   <clipPath id="id0">
    <path d="M-0 1.12338l1.12338 0 0 -1.12338 -1.12338 0 0 1.12338z"/>
   </clipPath>
 </defs>
 <g id="Ebene_x0020_1">
  <metadata id="CorelCorpID_0Corel-Layer"/>
  <g>
  </g>
  <g style="clip-path:url(#id0)">
   <g>
    <path class="fil0" d="M1.05111 0.28048c0,-0.0310381 -0.0197621,-0.0550269 -0.0451833,-0.0550269l-0.467092 0 -0.104428 -0.155209c-0.00847216,-0.00990915 -0.0211617,-0.0155401 -0.0324517,-0.0155401l-0.351403 0c-0.0254024,0 -0.0465548,0.0254071 -0.0465548,0.0578541l0 0.788866c0,0.0310521 0.021171,0.0550316 0.0465548,0.0578494l0.0706279 0c0.0011187,-0.0108172 0.00316419,-0.0215221 0.00611774,-0.0320538 0.00437182,-0.0155869 0.0107704,-0.0307619 0.0191536,-0.0453331l-0.0704781 -0.000219995 0 -0.753587 0.314678 0.00423608 0.108673 0.160873c0.00564967,0.00704921 0.0141078,0.0112759 0.021171,0.0112759l0.45723 0 0 -0.00139486 0 0.461714c0.00616923,0.00239655 0.0122823,0.00494288 0.0183298,0.00764367 0.0182409,0.00814451 0.0358171,0.0176137 0.052504,0.0283888l0.00137146 0.000889343 0.000411906 0.000402545 0.000791047 0.000528925c0.000163826,-0.463933 0.0013855,-0.171082 0.0013855,-0.448763l-0.00140891 -0.0733942 0 0z"/>
    <path class="fil0" d="M0.453574 0.738108c0.08328,0 0.149906,-0.0653433 0.149906,-0.148628 -0.00769048,-0.196035 -0.293413,-0.196035 -0.302381,0 0,0.0807196 0.0679084,0.148628 0.152476,0.148628l0 0zm-0.0845672 -0.148628c0.00128253,-0.0448416 0.0410034,-0.0794371 0.0871275,-0.0781592 0.0435638,0.00128253 0.0781592,0.0358733 0.0807196,0.0781592 -0.00512542,0.107629 -0.164004,0.107629 -0.167847,0l0 0z"/>
    <path class="fil0" d="M0.811043 0.738108c0.0832846,0 0.14991,-0.0653433 0.14991,-0.148628 -0.00769048,-0.196035 -0.293413,-0.196035 -0.302381,0 0.00128253,0.0807196 0.067913,0.148628 0.152471,0.148628l0 0zm0 -0.229352c0.0461288,0 0.0832846,0.035878 0.0832846,0.0807243 -0.0038429,0.107629 -0.162722,0.107629 -0.165282,0 0,-0.0448416 0.0358733,-0.0807243 0.0819974,-0.0807243l0 0z"/>
    <path class="fil0" d="M1.0263 0.835486c-0.0615051,-0.0397209 -0.134534,-0.05894 -0.207568,-0.0576575 -0.0627829,-0.00128253 -0.125561,0.0140937 -0.181941,0.0422812 -0.0563797,-0.0281875 -0.119158,-0.0435638 -0.181941,-0.0422812 -0.0730338,-0.00128253 -0.146063,0.0179366 -0.207568,0.0576575 -0.056375,0.0371558 -0.085845,0.0884054 -0.085845,0.143507l0 0.0538099c0,0.0192192 0.0140937,0.0345954 0.0346001,0.0358733l0.884077 0c0.020497,-0.00128253 0.0345954,-0.0166588 0.0345954,-0.0358733l0 -0.0538099c-0.00128253,-0.0551018 -0.0320351,-0.106351 -0.0884101,-0.143507zm-0.344667 0.167847l-0.451005 0 0 -0.0192192c0.0038429,-0.0717513 0.0794371,-0.108912 0.137095,-0.126848 0.08328,-0.0243446 0.17169,-0.0115287 0.249849,0.0307525 0.0333129,0.0192192 0.0640608,0.0538099 0.0640608,0.0948133l0 0.0205017zm0.363886 0l-0.294696 0c0.00384758,-0.0512496 -0.0128112,-0.0999388 -0.0461241,-0.137095 0.0896879,-0.0345954 0.192187,-0.0256271 0.276754,0.0217842 0.0333129,0.0192192 0.0640655,0.0538099 0.0640655,0.0948133l0 0.020497 0 0z"/>
   </g>
  </g>
  <polygon class="fil1" points="-0,1.12338 1.12338,1.12338 1.12338,0 -0,0 "/>
 </g>
</svg>
