<svg xmlns="http://www.w3.org/2000/svg" viewBox="0 0 7.58 13.25" width="16" height="16">
    <defs>
        <style>
            .a {
            fill: #ff9100;
            stroke: #ff9100;
            stroke-linejoin: round;
            stroke-width: 0.25px;
            }
        </style>
    </defs>
    <title>questionmark</title>
    <path class="a"
          d="M12.53,4.71a3.26,3.26,0,0,1-.13,1,2.56,2.56,0,0,1-.35.72,2.68,2.68,0,0,1-.51.54,7.25,7.25,0,0,1-.6.43l-0.7.44a3.72,3.72,0,0,0-.63.47,2.16,2.16,0,0,0-.46.62A1.92,1.92,0,0,0,9,9.77V9.92H6.74q0-.09,0-0.21c0-.09,0-0.15,0-0.21a3.27,3.27,0,0,1,.2-1.21,2.93,2.93,0,0,1,.5-0.84,3.55,3.55,0,0,1,.68-0.61l0.73-.47L9.3,6.05a2.25,2.25,0,0,0,.4-0.35A1.55,1.55,0,0,0,10,5.29a1.29,1.29,0,0,0,.1-0.52,1.24,1.24,0,0,0-.49-1A2.48,2.48,0,0,0,8,3.35a6.44,6.44,0,0,0-1.52.18A8.15,8.15,0,0,0,5.2,4V2.12a5.9,5.9,0,0,1,.68-0.25q0.38-.11.78-0.2t0.83-.13a7.43,7.43,0,0,1,.83,0,6.46,6.46,0,0,1,1.78.22,3.83,3.83,0,0,1,1.32.64,2.83,2.83,0,0,1,.82,1A3,3,0,0,1,12.53,4.71ZM6.56,12h2.7V14.5H6.56V12Z"
          transform="translate(-5.08 -1.38)"/>
</svg>
